<svg xmlns="http://www.w3.org/2000/svg" width="38" height="28" viewBox="0 -2 38 28" style="isolation:isolate"><defs><clipPath id="a"><path d="M0 0h147.8v23.872H0z"/></clipPath></defs><g clip-path="url(#a)"><path d="M19.487 7.018A12.27 12.27 0 0 1 22.2 17.4c3.846-1.534 5.338-4.106 5.792-6.678 0 0 1.311-4.874 3.349-6.9-4.027.632-4.434-.948-11.854 3.2"/><path d="M13.326 12a16.381 16.381 0 0 0-4.049-6.586s5.6 1.472 8.824 11.924c-3.042-.918-4.34-3.92-4.781-5.338m6.935 6.84c.09-.5 1.574-5.556-1.366-9.662C13.966 3.722 6.546 2.956 6.546 2.956 7.994 5.756 8.04 8.37 9.622 13.7c1.917 5.518 8.99 5.89 9.514 5.9.475.75 1.564 1.76 4.057 2.282l.276-1.314c-2.151-.45-2.938-1.278-3.208-1.734"/><path d="M7.34 1.35C4.211 2.824 2.956 6.422 2.956 11.922c0 5.4 1.253 9.02 4.384 10.6l-.351 1.35C2.18 22.186 0 18.438 0 11.944 0 5.4 2.18 1.65 6.989 0l.351 1.35zM30.512 0C35.325 1.648 37.5 5.4 37.5 11.942c0 6.5-2.18 10.244-6.989 11.916l-.375-1.348c3.133-1.574 4.384-5.2 4.384-10.6 0-5.5-1.253-9.094-4.384-10.568L30.512 0z"/></g></svg>
